<svg xmlns="http://www.w3.org/2000/svg" xmlns:xlink="http://www.w3.org/1999/xlink" width="1560" height="521.04"><rect width="1560" height="521.04" rx="0" ry="0" class="a"/><svg height="521.04" viewBox="0 0 156 52.104" width="1560" xmlns="http://www.w3.org/2000/svg" xmlns:xlink="http://www.w3.org/1999/xlink"><style>@keyframes i{0%{transform:translateX(0)}1.5%{transform:translateX(-312px)}1.6%{transform:translateX(-936px)}1.9%{transform:translateX(-1092px)}12.4%{transform:translateX(-1248px)}23%{transform:translateX(-1404px)}23.8%{transform:translateX(-1560px)}24.9%{transform:translateX(-1716px)}25.6%{transform:translateX(-1872px)}27.3%{transform:translateX(-2028px)}36.1%{transform:translateX(-2184px)}37.6%{transform:translateX(-2340px)}38.4%{transform:translateX(-2496px)}41.1%{transform:translateX(-2652px)}42.7%{transform:translateX(-2808px)}44.5%{transform:translateX(-2964px)}45.1%{transform:translateX(-3120px)}47.5%{transform:translateX(-3276px)}51%{transform:translateX(-3432px)}56.8%{transform:translateX(-3588px)}56.9%{transform:translateX(-3744px)}57%{transform:translateX(-3900px)}62.6%{transform:translateX(-4212px)}62.7%{transform:translateX(-4992px)}62.8%{transform:translateX(-6240px)}62.9%{transform:translateX(-6864px)}63%{transform:translateX(-7800px)}76.9%{transform:translateX(-7956px)}77.1%{transform:translateX(-8268px)}77.8%{transform:translateX(-8424px)}to{transform:translateX(-8580px)}}.a{fill:#282d35}.c,.d,.e,.f{fill:#b9c0cb;white-space:pre}.d,.e,.f{fill:#a8cc8c;font-weight:700}.e,.f{fill:#66c2cd}.f{fill:#dbab79}</style><g font-family="Monaco,Consolas,Menlo,'Bitstream Vera Sans Mono','Powerline Symbols',monospace" font-size="1.67"><defs><symbol id="1"><text y="1.67" class="c">Start</text><text x="6.012" y="1.67" class="c">SSH</text><text x="10.02" y="1.67" class="c">Agent</text><text x="16.032" y="1.67" class="c">...Agent</text><text x="25.05" y="1.67" class="c">pid</text><text x="29.058" y="1.67" class="c">265145</text></symbol><symbol id="2"><text y="1.67" class="c">done.</text></symbol><symbol id="3"><text y="1.67" class="c">Adding</text><text x="7.014" y="1.67" class="c">ssh</text><text x="11.022" y="1.67" class="c">key...Identity</text><text x="26.052" y="1.67" class="c">added:</text><text x="33.066" y="1.67" class="c">/home/claudiol/.ssh/id_rsa</text><text x="60.12" y="1.67" class="c">(claudiol@fedora.redhat.local)</text></symbol><symbol id="4"><text y="1.67" class="d">claudiol@fedora</text><text x="15.03" y="1.67" class="c">:</text><text x="16.032" y="1.67" class="e">medical-diagnosis</text><text x="34.068" y="1.67" class="f">(claudiol-xray-deployment</text><text x="60.12" y="1.67" class="f">%</text><text x="62.124" y="1.67" class="f">u=</text><text x="65.13" y="1.67" class="f">origin/claudiol-xray-deployment)</text></symbol><symbol id="5"><text y="1.67" class="c">$</text></symbol><symbol id="6"><text y="1.67" class="c">$</text><text x="2.004" y="1.67" class="c">make</text></symbol><symbol id="7"><text y="1.67" class="c">$</text><text x="2.004" y="1.67" class="c">make</text><text x="7.014" y="1.67" class="c">predeploy</text></symbol><symbol id="8"><text y="1.67" class="c">./scripts/precheck.sh</text></symbol><symbol id="9"><text y="1.67" class="e">Checking</text><text x="9.018" y="1.67" class="e">values-global.yaml</text><text x="28.056" y="1.67" class="e">settingsare</text><text x="40.08" y="1.67" class="e">set</text><text x="44.088" y="1.67" class="e">...</text></symbol><symbol id="10"><text y="1.67" class="e">Verifying</text><text x="10.02" y="1.67" class="e">clustername</text><text x="22.044" y="1.67" class="e">and</text><text x="26.052" y="1.67" class="e">domain</text><text x="33.066" y="1.67" class="e">values:</text><text x="41.082" y="1.67" class="c">pass</text></symbol><symbol id="11"><text y="1.67" class="e">Verifying</text><text x="10.02" y="1.67" class="e">externalUrl</text><text x="22.044" y="1.67" class="e">value:</text><text x="29.058" y="1.67" class="c">pass</text></symbol><symbol id="12"><text y="1.67" class="e">Checking</text><text x="9.018" y="1.67" class="e">file</text><text x="14.028" y="1.67" class="e">for</text><text x="18.036" y="1.67" class="e">values-secret.yaml:</text><text x="38.076" y="1.67" class="c">pass</text></symbol><symbol id="13"><text y="1.67" class="e">Check</text><text x="6.012" y="1.67" class="e">that</text><text x="11.022" y="1.67" class="e">required</text><text x="20.04" y="1.67" class="e">secrets</text><text x="28.056" y="1.67" class="e">sections</text><text x="37.074" y="1.67" class="e">exist</text><text x="43.086" y="1.67" class="e">in</text><text x="46.092" y="1.67" class="e">values-secret.yaml</text></symbol><symbol id="14"><text y="1.67" class="e">Checking</text><text x="9.018" y="1.67" class="e">for</text><text x="13.026" y="1.67" class="e">xraylab</text><text x="21.042" y="1.67" class="e">sections:</text></symbol><symbol id="15"><text y="1.67" class="e">Checking</text><text x="9.018" y="1.67" class="e">[secrets:]</text><text x="20.04" y="1.67" class="e">...</text><text x="24.048" y="1.67" class="c">pass</text></symbol><symbol id="16"><text y="1.67" class="e">Checking</text><text x="9.018" y="1.67" class="e">[xraylab:]</text><text x="20.04" y="1.67" class="e">...</text><text x="24.048" y="1.67" class="c">pass</text></symbol><symbol id="17"><text y="1.67" class="e">Checking</text><text x="9.018" y="1.67" class="e">[db:]</text><text x="15.03" y="1.67" class="e">...</text><text x="19.038" y="1.67" class="c">pass</text></symbol><symbol id="18"><text y="1.67" class="e">Checking</text><text x="9.018" y="1.67" class="e">[db_user]</text><text x="19.038" y="1.67" class="e">...</text><text x="23.046" y="1.67" class="c">pass</text></symbol><symbol id="19"><text y="1.67" class="e">Checking</text><text x="9.018" y="1.67" class="e">[dn_passwd]</text><text x="21.042" y="1.67" class="e">...</text><text x="25.05" y="1.67" class="c">pass</text></symbol><symbol id="20"><text y="1.67" class="e">Checking</text><text x="9.018" y="1.67" class="e">[db_root_passwd]</text><text x="26.052" y="1.67" class="e">...</text><text x="30.06" y="1.67" class="c">pass</text></symbol><symbol id="21"><text y="1.67" class="e">Checking</text><text x="9.018" y="1.67" class="e">[db_host]</text><text x="19.038" y="1.67" class="e">...</text><text x="23.046" y="1.67" class="c">pass</text></symbol><symbol id="22"><text y="1.67" class="e">Checking</text><text x="9.018" y="1.67" class="e">[db_dbname]</text><text x="21.042" y="1.67" class="e">...</text><text x="25.05" y="1.67" class="c">pass</text></symbol><symbol id="23"><text y="1.67" class="e">Checking</text><text x="9.018" y="1.67" class="e">[db_master_password]</text><text x="30.06" y="1.67" class="e">...</text><text x="34.068" y="1.67" class="c">pass</text></symbol><symbol id="24"><text y="1.67" class="e">Checking</text><text x="9.018" y="1.67" class="e">[db_master_user]</text><text x="26.052" y="1.67" class="e">...</text><text x="30.06" y="1.67" class="c">pass</text></symbol><symbol id="25"><text y="1.67" class="e">Proceeding</text><text x="11.022" y="1.67" class="e">with</text><text x="16.032" y="1.67" class="e">the</text><text x="20.04" y="1.67" class="e">following</text><text x="30.06" y="1.67" class="e">values</text><text x="37.074" y="1.67" class="e">specified</text><text x="47.094" y="1.67" class="e">in</text><text x="50.1" y="1.67" class="e">values-global.yaml:</text></symbol><symbol id="26"><text x="2.004" y="1.67" class="c">datacenter:</text></symbol><symbol id="27"><text x="4.008" y="1.67" class="c">clustername:</text><text x="17.034" y="1.67" class="c">claudiol-xray</text></symbol><symbol id="28"><text x="4.008" y="1.67" class="c">domain:</text><text x="12.024" y="1.67" class="c">blueprints.rhecoeng.com</text></symbol><symbol id="29"><text x="6.012" y="1.67" class="c">externalUrl:</text><text x="19.038" y="1.67" class="c">&quot;https://s3-rgw-openshift-storage.apps.claudiol-xray.blueprints.rhecoeng.com&quot;</text></symbol><symbol id="30"><text x="6.012" y="1.67" class="c">targetBucket:</text><text x="20.04" y="1.67" class="c">com.redhat.claudiol.xray-source</text></symbol><symbol id="31"><text x="6.012" y="1.67" class="c">bucketSource:</text><text x="20.04" y="1.67" class="c">&quot;https://s3.us-west-1.amazonaws.com/com.redhat.claudiol.xray-source&quot;</text></symbol><symbol id="32"><text y="1.67" class="e">Proceed</text><text x="8.016" y="1.67" class="e">(Y/n)?</text><text x="15.03" y="1.67" class="c">y</text></symbol><symbol id="33"><text y="1.67" class="e">Proceed</text><text x="8.016" y="1.67" class="e">(Y/n)?</text><text x="15.03" y="1.67" class="c">y</text><text x="16.032" y="1.67" class="d">claudiol@fedora</text><text x="31.062" y="1.67" class="c">:</text><text x="32.064" y="1.67" class="e">medical-diagnosis</text><text x="50.1" y="1.67" class="f">(claudiol-xray-deployment</text><text x="76.152" y="1.67" class="f">%</text><text x="78.156" y="1.67" class="f">u=</text><text x="81.162" y="1.67" class="f">origin/claudiol-xray-deployment)</text></symbol><symbol id="a"><path fill="transparent" d="M0 0h156v24H0z"/></symbol><symbol id="b"><path fill="#6f7683" d="M0 0h1.102v2.171H0z"/></symbol></defs><path class="a" d="M0 0h156v52.104H0z"/><g style="animation-duration:9.214346s;animation-iteration-count:infinite;animation-name:i;animation-timing-function:steps(1,end)"><svg width="8736"><svg><use xlink:href="#a"/><use xlink:href="#b" x="-.004"/></svg><svg x="156"><use xlink:href="#a"/><use xlink:href="#b" x="18.996"/><text y="1.67" class="c">Start</text><text x="6.012" y="1.67" class="c">SSH</text><text x="10.02" y="1.67" class="c">Agent</text><text x="16.032" y="1.67" class="c">...</text></svg><svg x="312"><use xlink:href="#a"/><use xlink:href="#b" x="16.996" y="4.317"/><use xlink:href="#1"/><use xlink:href="#2" y="2.171"/><text y="6.012" class="c">Adding</text><text x="7.014" y="6.012" class="c">ssh</text><text x="11.022" y="6.012" class="c">key...</text></svg><svg x="468"><use xlink:href="#a"/><use xlink:href="#b" x="-.004" y="6.488"/><use xlink:href="#1"/><use xlink:href="#2" y="2.171"/><use xlink:href="#3" y="4.342"/></svg><svg x="624"><use xlink:href="#a"/><use xlink:href="#b" x="-.004" y="8.659"/><use xlink:href="#1"/><use xlink:href="#2" y="2.171"/><use xlink:href="#3" y="4.342"/><use xlink:href="#2" y="6.513"/></svg><svg x="780"><use xlink:href="#a"/><use xlink:href="#b" x="-.004" y="8.659"/><use xlink:href="#1"/><use xlink:href="#2" y="2.171"/><use xlink:href="#3" y="4.342"/><use xlink:href="#2" y="6.513"/></svg><svg x="936"><use xlink:href="#a"/><use xlink:href="#b" x="-.004" y="8.659"/><use xlink:href="#1"/><use xlink:href="#2" y="2.171"/><use xlink:href="#3" y="4.342"/><use xlink:href="#2" y="6.513"/></svg><svg x="1092"><use xlink:href="#a"/><use xlink:href="#b" x="1.996" y="10.83"/><use xlink:href="#1"/><use xlink:href="#2" y="2.171"/><use xlink:href="#3" y="4.342"/><use xlink:href="#2" y="6.513"/><use xlink:href="#4" y="8.684"/><use xlink:href="#5" y="10.855"/></svg><svg x="1248"><use xlink:href="#a"/><use xlink:href="#b" x="1.996" y="2.146"/><use xlink:href="#4"/><use xlink:href="#5" y="2.171"/></svg><svg x="1404"><use xlink:href="#a"/><use xlink:href="#b" x="2.996" y="2.146"/><use xlink:href="#4"/><text y="3.841" class="c">$</text><text x="2.004" y="3.841" class="c">m</text></svg><svg x="1560"><use xlink:href="#a"/><use xlink:href="#b" x="3.996" y="2.146"/><use xlink:href="#4"/><text y="3.841" class="c">$</text><text x="2.004" y="3.841" class="c">ma</text></svg><svg x="1716"><use xlink:href="#a"/><use xlink:href="#b" x="4.996" y="2.146"/><use xlink:href="#4"/><text y="3.841" class="c">$</text><text x="2.004" y="3.841" class="c">mak</text></svg><svg x="1872"><use xlink:href="#a"/><use xlink:href="#b" x="5.996" y="2.146"/><use xlink:href="#4"/><use xlink:href="#6" y="2.171"/></svg><svg x="2028"><use xlink:href="#a"/><use xlink:href="#b" x="6.996" y="2.146"/><use xlink:href="#4"/><use xlink:href="#6" y="2.171"/></svg><svg x="2184"><use xlink:href="#a"/><use xlink:href="#b" x="7.996" y="2.146"/><use xlink:href="#4"/><text y="3.841" class="c">$</text><text x="2.004" y="3.841" class="c">make</text><text x="7.014" y="3.841" class="c">p</text></svg><svg x="2340"><use xlink:href="#a"/><use xlink:href="#b" x="8.996" y="2.146"/><use xlink:href="#4"/><text y="3.841" class="c">$</text><text x="2.004" y="3.841" class="c">make</text><text x="7.014" y="3.841" class="c">pr</text></svg><svg x="2496"><use xlink:href="#a"/><use xlink:href="#b" x="9.996" y="2.146"/><use xlink:href="#4"/><text y="3.841" class="c">$</text><text x="2.004" y="3.841" class="c">make</text><text x="7.014" y="3.841" class="c">pre</text></svg><svg x="2652"><use xlink:href="#a"/><use xlink:href="#b" x="10.996" y="2.146"/><use xlink:href="#4"/><text y="3.841" class="c">$</text><text x="2.004" y="3.841" class="c">make</text><text x="7.014" y="3.841" class="c">pred</text></svg><svg x="2808"><use xlink:href="#a"/><use xlink:href="#b" x="11.996" y="2.146"/><use xlink:href="#4"/><text y="3.841" class="c">$</text><text x="2.004" y="3.841" class="c">make</text><text x="7.014" y="3.841" class="c">prede</text></svg><svg x="2964"><use xlink:href="#a"/><use xlink:href="#b" x="12.996" y="2.146"/><use xlink:href="#4"/><text y="3.841" class="c">$</text><text x="2.004" y="3.841" class="c">make</text><text x="7.014" y="3.841" class="c">predep</text></svg><svg x="3120"><use xlink:href="#a"/><use xlink:href="#b" x="13.996" y="2.146"/><use xlink:href="#4"/><text y="3.841" class="c">$</text><text x="2.004" y="3.841" class="c">make</text><text x="7.014" y="3.841" class="c">predepl</text></svg><svg x="3276"><use xlink:href="#a"/><use xlink:href="#b" x="14.996" y="2.146"/><use xlink:href="#4"/><text y="3.841" class="c">$</text><text x="2.004" y="3.841" class="c">make</text><text x="7.014" y="3.841" class="c">predeplo</text></svg><svg x="3432"><use xlink:href="#a"/><use xlink:href="#b" x="15.996" y="2.146"/><use xlink:href="#4"/><use xlink:href="#7" y="2.171"/></svg><svg x="3588"><use xlink:href="#a"/><use xlink:href="#b" x="-.004" y="4.317"/><use xlink:href="#4"/><use xlink:href="#7" y="2.171"/></svg><svg x="3744"><use xlink:href="#a"/><use xlink:href="#b" x="-.004" y="6.488"/><use xlink:href="#4"/><use xlink:href="#7" y="2.171"/><use xlink:href="#8" y="4.342"/></svg><svg x="3900"><use xlink:href="#a"/><use xlink:href="#b" x="47.996" y="6.488"/><use xlink:href="#4"/><use xlink:href="#7" y="2.171"/><use xlink:href="#8" y="4.342"/><text y="8.183" class="e">Making</text><text x="7.014" y="8.183" class="e">sure</text><text x="12.024" y="8.183" class="e">that</text><text x="17.034" y="8.183" class="e">required</text><text x="26.052" y="8.183" class="e">variables</text><text x="36.072" y="8.183" class="e">are</text><text x="40.08" y="8.183" class="e">set</text><text x="44.088" y="8.183" class="e">...</text></svg><svg x="4056"><use xlink:href="#a"/><use xlink:href="#b" x="-.004" y="8.659"/><use xlink:href="#4"/><use xlink:href="#7" y="2.171"/><use xlink:href="#8" y="4.342"/><use xlink:href="#9" y="6.513"/></svg><svg x="4212"><use xlink:href="#a"/><use xlink:href="#b" x="40.996" y="8.659"/><use xlink:href="#4"/><use xlink:href="#7" y="2.171"/><use xlink:href="#8" y="4.342"/><use xlink:href="#9" y="6.513"/><text y="10.354" class="e">Verifying</text><text x="10.02" y="10.354" class="e">clustername</text><text x="22.044" y="10.354" class="e">and</text><text x="26.052" y="10.354" class="e">domain</text><text x="33.066" y="10.354" class="e">values:</text></svg><svg x="4368"><use xlink:href="#a"/><use xlink:href="#b" x="28.996" y="10.83"/><use xlink:href="#4"/><use xlink:href="#7" y="2.171"/><use xlink:href="#8" y="4.342"/><use xlink:href="#9" y="6.513"/><use xlink:href="#10" y="8.684"/><text y="12.525" class="e">Verifying</text><text x="10.02" y="12.525" class="e">externalUrl</text><text x="22.044" y="12.525" class="e">value:</text></svg><svg x="4524"><use xlink:href="#a"/><use xlink:href="#b" x="-.004" y="13.001"/><use xlink:href="#4"/><use xlink:href="#7" y="2.171"/><use xlink:href="#8" y="4.342"/><use xlink:href="#9" y="6.513"/><use xlink:href="#10" y="8.684"/><use xlink:href="#11" y="10.855"/></svg><svg x="4680"><use xlink:href="#a"/><use xlink:href="#b" x="37.996" y="13.001"/><use xlink:href="#4"/><use xlink:href="#7" y="2.171"/><use xlink:href="#8" y="4.342"/><use xlink:href="#9" y="6.513"/><use xlink:href="#10" y="8.684"/><use xlink:href="#11" y="10.855"/><text y="14.696" class="e">Checking</text><text x="9.018" y="14.696" class="e">file</text><text x="14.028" y="14.696" class="e">for</text><text x="18.036" y="14.696" class="e">values-secret.yaml:</text></svg><svg x="4836"><use xlink:href="#a"/><use xlink:href="#b" x="-.004" y="15.172"/><use xlink:href="#4"/><use xlink:href="#7" y="2.171"/><use xlink:href="#8" y="4.342"/><use xlink:href="#9" y="6.513"/><use xlink:href="#10" y="8.684"/><use xlink:href="#11" y="10.855"/><use xlink:href="#12" y="13.026"/></svg><svg x="4992"><use xlink:href="#a"/><use xlink:href="#b" x="23.996" y="19.514"/><use xlink:href="#4"/><use xlink:href="#7" y="2.171"/><use xlink:href="#8" y="4.342"/><use xlink:href="#9" y="6.513"/><use xlink:href="#10" y="8.684"/><use xlink:href="#11" y="10.855"/><use xlink:href="#12" y="13.026"/><use xlink:href="#13" y="15.197"/><use xlink:href="#14" y="17.368"/><text y="21.209" class="e">Checking</text><text x="9.018" y="21.209" class="e">[secrets:]</text><text x="20.04" y="21.209" class="e">...</text></svg><svg x="5148"><use xlink:href="#a"/><use xlink:href="#b" x="-.004" y="21.685"/><use xlink:href="#4"/><use xlink:href="#7" y="2.171"/><use xlink:href="#8" y="4.342"/><use xlink:href="#9" y="6.513"/><use xlink:href="#10" y="8.684"/><use xlink:href="#11" y="10.855"/><use xlink:href="#12" y="13.026"/><use xlink:href="#13" y="15.197"/><use xlink:href="#14" y="17.368"/><use xlink:href="#15" y="19.539"/></svg><svg x="5304"><use xlink:href="#a"/><use xlink:href="#b" x="23.996" y="21.685"/><use xlink:href="#4"/><use xlink:href="#7" y="2.171"/><use xlink:href="#8" y="4.342"/><use xlink:href="#9" y="6.513"/><use xlink:href="#10" y="8.684"/><use xlink:href="#11" y="10.855"/><use xlink:href="#12" y="13.026"/><use xlink:href="#13" y="15.197"/><use xlink:href="#14" y="17.368"/><use xlink:href="#15" y="19.539"/><text y="23.38" class="e">Checking</text><text x="9.018" y="23.38" class="e">[xraylab:]</text><text x="20.04" y="23.38" class="e">...</text></svg><svg x="5460"><use xlink:href="#a"/><use xlink:href="#b" x="-.004" y="23.856"/><use xlink:href="#4"/><use xlink:href="#7" y="2.171"/><use xlink:href="#8" y="4.342"/><use xlink:href="#9" y="6.513"/><use xlink:href="#10" y="8.684"/><use xlink:href="#11" y="10.855"/><use xlink:href="#12" y="13.026"/><use xlink:href="#13" y="15.197"/><use xlink:href="#14" y="17.368"/><use xlink:href="#15" y="19.539"/><use xlink:href="#16" y="21.71"/></svg><svg x="5616"><use xlink:href="#a"/><use xlink:href="#b" x="18.996" y="23.856"/><use xlink:href="#4"/><use xlink:href="#7" y="2.171"/><use xlink:href="#8" y="4.342"/><use xlink:href="#9" y="6.513"/><use xlink:href="#10" y="8.684"/><use xlink:href="#11" y="10.855"/><use xlink:href="#12" y="13.026"/><use xlink:href="#13" y="15.197"/><use xlink:href="#14" y="17.368"/><use xlink:href="#15" y="19.539"/><use xlink:href="#16" y="21.71"/><text y="25.551" class="e">Checking</text><text x="9.018" y="25.551" class="e">[db:]</text><text x="15.03" y="25.551" class="e">...</text></svg><svg x="5772"><use xlink:href="#a"/><use xlink:href="#b" x="22.996" y="26.027"/><use xlink:href="#4"/><use xlink:href="#7" y="2.171"/><use xlink:href="#8" y="4.342"/><use xlink:href="#9" y="6.513"/><use xlink:href="#10" y="8.684"/><use xlink:href="#11" y="10.855"/><use xlink:href="#12" y="13.026"/><use xlink:href="#13" y="15.197"/><use xlink:href="#14" y="17.368"/><use xlink:href="#15" y="19.539"/><use xlink:href="#16" y="21.71"/><use xlink:href="#17" y="23.881"/><text y="27.722" class="e">Checking</text><text x="9.018" y="27.722" class="e">[db_user]</text><text x="19.038" y="27.722" class="e">...</text></svg><svg x="5928"><use xlink:href="#a"/><use xlink:href="#b" x="24.996" y="28.198"/><use xlink:href="#4"/><use xlink:href="#7" y="2.171"/><use xlink:href="#8" y="4.342"/><use xlink:href="#9" y="6.513"/><use xlink:href="#10" y="8.684"/><use xlink:href="#11" y="10.855"/><use xlink:href="#12" y="13.026"/><use xlink:href="#13" y="15.197"/><use xlink:href="#14" y="17.368"/><use xlink:href="#15" y="19.539"/><use xlink:href="#16" y="21.71"/><use xlink:href="#17" y="23.881"/><use xlink:href="#18" y="26.052"/><text y="29.893" class="e">Checking</text><text x="9.018" y="29.893" class="e">[dn_passwd]</text><text x="21.042" y="29.893" class="e">...</text></svg><svg x="6084"><use xlink:href="#a"/><use xlink:href="#b" x="-.004" y="30.369"/><use xlink:href="#4"/><use xlink:href="#7" y="2.171"/><use xlink:href="#8" y="4.342"/><use xlink:href="#9" y="6.513"/><use xlink:href="#10" y="8.684"/><use xlink:href="#11" y="10.855"/><use xlink:href="#12" y="13.026"/><use xlink:href="#13" y="15.197"/><use xlink:href="#14" y="17.368"/><use xlink:href="#15" y="19.539"/><use xlink:href="#16" y="21.71"/><use xlink:href="#17" y="23.881"/><use xlink:href="#18" y="26.052"/><use xlink:href="#19" y="28.223"/></svg><svg x="6240"><use xlink:href="#a"/><use xlink:href="#b" x="29.996" y="30.369"/><use xlink:href="#4"/><use xlink:href="#7" y="2.171"/><use xlink:href="#8" y="4.342"/><use xlink:href="#9" y="6.513"/><use xlink:href="#10" y="8.684"/><use xlink:href="#11" y="10.855"/><use xlink:href="#12" y="13.026"/><use xlink:href="#13" y="15.197"/><use xlink:href="#14" y="17.368"/><use xlink:href="#15" y="19.539"/><use xlink:href="#16" y="21.71"/><use xlink:href="#17" y="23.881"/><use xlink:href="#18" y="26.052"/><use xlink:href="#19" y="28.223"/><text y="32.064" class="e">Checking</text><text x="9.018" y="32.064" class="e">[db_root_passwd]</text><text x="26.052" y="32.064" class="e">...</text></svg><svg x="6396"><use xlink:href="#a"/><use xlink:href="#b" x="22.996" y="32.54"/><use xlink:href="#4"/><use xlink:href="#7" y="2.171"/><use xlink:href="#8" y="4.342"/><use xlink:href="#9" y="6.513"/><use xlink:href="#10" y="8.684"/><use xlink:href="#11" y="10.855"/><use xlink:href="#12" y="13.026"/><use xlink:href="#13" y="15.197"/><use xlink:href="#14" y="17.368"/><use xlink:href="#15" y="19.539"/><use xlink:href="#16" y="21.71"/><use xlink:href="#17" y="23.881"/><use xlink:href="#18" y="26.052"/><use xlink:href="#19" y="28.223"/><use xlink:href="#20" y="30.394"/><text y="34.235" class="e">Checking</text><text x="9.018" y="34.235" class="e">[db_host]</text><text x="19.038" y="34.235" class="e">...</text></svg><svg x="6552"><use xlink:href="#a"/><use xlink:href="#b" x="24.996" y="34.711"/><use xlink:href="#4"/><use xlink:href="#7" y="2.171"/><use xlink:href="#8" y="4.342"/><use xlink:href="#9" y="6.513"/><use xlink:href="#10" y="8.684"/><use xlink:href="#11" y="10.855"/><use xlink:href="#12" y="13.026"/><use xlink:href="#13" y="15.197"/><use xlink:href="#14" y="17.368"/><use xlink:href="#15" y="19.539"/><use xlink:href="#16" y="21.71"/><use xlink:href="#17" y="23.881"/><use xlink:href="#18" y="26.052"/><use xlink:href="#19" y="28.223"/><use xlink:href="#20" y="30.394"/><use xlink:href="#21" y="32.565"/><text y="36.406" class="e">Checking</text><text x="9.018" y="36.406" class="e">[db_dbname]</text><text x="21.042" y="36.406" class="e">...</text></svg><svg x="6708"><use xlink:href="#a"/><use xlink:href="#b" x="33.996" y="36.882"/><use xlink:href="#4"/><use xlink:href="#7" y="2.171"/><use xlink:href="#8" y="4.342"/><use xlink:href="#9" y="6.513"/><use xlink:href="#10" y="8.684"/><use xlink:href="#11" y="10.855"/><use xlink:href="#12" y="13.026"/><use xlink:href="#13" y="15.197"/><use xlink:href="#14" y="17.368"/><use xlink:href="#15" y="19.539"/><use xlink:href="#16" y="21.71"/><use xlink:href="#17" y="23.881"/><use xlink:href="#18" y="26.052"/><use xlink:href="#19" y="28.223"/><use xlink:href="#20" y="30.394"/><use xlink:href="#21" y="32.565"/><use xlink:href="#22" y="34.736"/><text y="38.577" class="e">Checking</text><text x="9.018" y="38.577" class="e">[db_master_password]</text><text x="30.06" y="38.577" class="e">...</text></svg><svg x="6864"><use xlink:href="#a"/><use xlink:href="#b" x="29.996" y="39.053"/><use xlink:href="#4"/><use xlink:href="#7" y="2.171"/><use xlink:href="#8" y="4.342"/><use xlink:href="#9" y="6.513"/><use xlink:href="#10" y="8.684"/><use xlink:href="#11" y="10.855"/><use xlink:href="#12" y="13.026"/><use xlink:href="#13" y="15.197"/><use xlink:href="#14" y="17.368"/><use xlink:href="#15" y="19.539"/><use xlink:href="#16" y="21.71"/><use xlink:href="#17" y="23.881"/><use xlink:href="#18" y="26.052"/><use xlink:href="#19" y="28.223"/><use xlink:href="#20" y="30.394"/><use xlink:href="#21" y="32.565"/><use xlink:href="#22" y="34.736"/><use xlink:href="#23" y="36.907"/><text y="40.748" class="e">Checking</text><text x="9.018" y="40.748" class="e">[db_master_user]</text><text x="26.052" y="40.748" class="e">...</text></svg><svg x="7020"><use xlink:href="#a"/><use xlink:href="#b" x="-.004" y="41.224"/><use xlink:href="#4"/><use xlink:href="#7" y="2.171"/><use xlink:href="#8" y="4.342"/><use xlink:href="#9" y="6.513"/><use xlink:href="#10" y="8.684"/><use xlink:href="#11" y="10.855"/><use xlink:href="#12" y="13.026"/><use xlink:href="#13" y="15.197"/><use xlink:href="#14" y="17.368"/><use xlink:href="#15" y="19.539"/><use xlink:href="#16" y="21.71"/><use xlink:href="#17" y="23.881"/><use xlink:href="#18" y="26.052"/><use xlink:href="#19" y="28.223"/><use xlink:href="#20" y="30.394"/><use xlink:href="#21" y="32.565"/><use xlink:href="#22" y="34.736"/><use xlink:href="#23" y="36.907"/><use xlink:href="#24" y="39.078"/></svg><svg x="7176"><use xlink:href="#a"/><use xlink:href="#b" x="-.004" y="43.395"/><use xlink:href="#4"/><use xlink:href="#7" y="2.171"/><use xlink:href="#8" y="4.342"/><use xlink:href="#9" y="6.513"/><use xlink:href="#10" y="8.684"/><use xlink:href="#11" y="10.855"/><use xlink:href="#12" y="13.026"/><use xlink:href="#13" y="15.197"/><use xlink:href="#14" y="17.368"/><use xlink:href="#15" y="19.539"/><use xlink:href="#16" y="21.71"/><use xlink:href="#17" y="23.881"/><use xlink:href="#18" y="26.052"/><use xlink:href="#19" y="28.223"/><use xlink:href="#20" y="30.394"/><use xlink:href="#21" y="32.565"/><use xlink:href="#22" y="34.736"/><use xlink:href="#23" y="36.907"/><use xlink:href="#24" y="39.078"/><use xlink:href="#25" y="41.249"/></svg><svg x="7332"><use xlink:href="#a"/><use xlink:href="#b" x="-.004" y="45.566"/><use xlink:href="#4"/><use xlink:href="#7" y="2.171"/><use xlink:href="#8" y="4.342"/><use xlink:href="#9" y="6.513"/><use xlink:href="#10" y="8.684"/><use xlink:href="#11" y="10.855"/><use xlink:href="#12" y="13.026"/><use xlink:href="#13" y="15.197"/><use xlink:href="#14" y="17.368"/><use xlink:href="#15" y="19.539"/><use xlink:href="#16" y="21.71"/><use xlink:href="#17" y="23.881"/><use xlink:href="#18" y="26.052"/><use xlink:href="#19" y="28.223"/><use xlink:href="#20" y="30.394"/><use xlink:href="#21" y="32.565"/><use xlink:href="#22" y="34.736"/><use xlink:href="#23" y="36.907"/><use xlink:href="#24" y="39.078"/><use xlink:href="#25" y="41.249"/><use xlink:href="#26" y="43.42"/></svg><svg x="7488"><use xlink:href="#a"/><use xlink:href="#b" x="-.004" y="49.908"/><use xlink:href="#8"/><use xlink:href="#9" y="2.171"/><use xlink:href="#10" y="4.342"/><use xlink:href="#11" y="6.513"/><use xlink:href="#12" y="8.684"/><use xlink:href="#13" y="10.855"/><use xlink:href="#14" y="13.026"/><use xlink:href="#15" y="15.197"/><use xlink:href="#16" y="17.368"/><use xlink:href="#17" y="19.539"/><use xlink:href="#18" y="21.71"/><use xlink:href="#19" y="23.881"/><use xlink:href="#20" y="26.052"/><use xlink:href="#21" y="28.223"/><use xlink:href="#22" y="30.394"/><use xlink:href="#23" y="32.565"/><use xlink:href="#24" y="34.736"/><use xlink:href="#25" y="36.907"/><use xlink:href="#26" y="39.078"/><use xlink:href="#27" y="41.249"/><use xlink:href="#28" y="43.42"/><use xlink:href="#29" y="45.591"/><use xlink:href="#30" y="47.762"/></svg><svg x="7644"><use xlink:href="#a"/><use xlink:href="#b" x="-.004" y="49.908"/><use xlink:href="#9"/><use xlink:href="#10" y="2.171"/><use xlink:href="#11" y="4.342"/><use xlink:href="#12" y="6.513"/><use xlink:href="#13" y="8.684"/><use xlink:href="#14" y="10.855"/><use xlink:href="#15" y="13.026"/><use xlink:href="#16" y="15.197"/><use xlink:href="#17" y="17.368"/><use xlink:href="#18" y="19.539"/><use xlink:href="#19" y="21.71"/><use xlink:href="#20" y="23.881"/><use xlink:href="#21" y="26.052"/><use xlink:href="#22" y="28.223"/><use xlink:href="#23" y="30.394"/><use xlink:href="#24" y="32.565"/><use xlink:href="#25" y="34.736"/><use xlink:href="#26" y="36.907"/><use xlink:href="#27" y="39.078"/><use xlink:href="#28" y="41.249"/><use xlink:href="#29" y="43.42"/><use xlink:href="#30" y="45.591"/><use xlink:href="#31" y="47.762"/></svg><svg x="7800"><use xlink:href="#a"/><use xlink:href="#b" x="14.996" y="49.908"/><use xlink:href="#9"/><use xlink:href="#10" y="2.171"/><use xlink:href="#11" y="4.342"/><use xlink:href="#12" y="6.513"/><use xlink:href="#13" y="8.684"/><use xlink:href="#14" y="10.855"/><use xlink:href="#15" y="13.026"/><use xlink:href="#16" y="15.197"/><use xlink:href="#17" y="17.368"/><use xlink:href="#18" y="19.539"/><use xlink:href="#19" y="21.71"/><use xlink:href="#20" y="23.881"/><use xlink:href="#21" y="26.052"/><use xlink:href="#22" y="28.223"/><use xlink:href="#23" y="30.394"/><use xlink:href="#24" y="32.565"/><use xlink:href="#25" y="34.736"/><use xlink:href="#26" y="36.907"/><use xlink:href="#27" y="39.078"/><use xlink:href="#28" y="41.249"/><use xlink:href="#29" y="43.42"/><use xlink:href="#30" y="45.591"/><use xlink:href="#31" y="47.762"/><text y="51.603" class="e">Proceed</text><text x="8.016" y="51.603" class="e">(Y/n)?</text></svg><svg x="7956"><use xlink:href="#a"/><use xlink:href="#b" x="15.996" y="49.908"/><use xlink:href="#9"/><use xlink:href="#10" y="2.171"/><use xlink:href="#11" y="4.342"/><use xlink:href="#12" y="6.513"/><use xlink:href="#13" y="8.684"/><use xlink:href="#14" y="10.855"/><use xlink:href="#15" y="13.026"/><use xlink:href="#16" y="15.197"/><use xlink:href="#17" y="17.368"/><use xlink:href="#18" y="19.539"/><use xlink:href="#19" y="21.71"/><use xlink:href="#20" y="23.881"/><use xlink:href="#21" y="26.052"/><use xlink:href="#22" y="28.223"/><use xlink:href="#23" y="30.394"/><use xlink:href="#24" y="32.565"/><use xlink:href="#25" y="34.736"/><use xlink:href="#26" y="36.907"/><use xlink:href="#27" y="39.078"/><use xlink:href="#28" y="41.249"/><use xlink:href="#29" y="43.42"/><use xlink:href="#30" y="45.591"/><use xlink:href="#31" y="47.762"/><use xlink:href="#32" y="49.933"/></svg><svg x="8112"><use xlink:href="#a"/><use xlink:href="#b" x="15.996" y="49.908"/><use xlink:href="#9"/><use xlink:href="#10" y="2.171"/><use xlink:href="#11" y="4.342"/><use xlink:href="#12" y="6.513"/><use xlink:href="#13" y="8.684"/><use xlink:href="#14" y="10.855"/><use xlink:href="#15" y="13.026"/><use xlink:href="#16" y="15.197"/><use xlink:href="#17" y="17.368"/><use xlink:href="#18" y="19.539"/><use xlink:href="#19" y="21.71"/><use xlink:href="#20" y="23.881"/><use xlink:href="#21" y="26.052"/><use xlink:href="#22" y="28.223"/><use xlink:href="#23" y="30.394"/><use xlink:href="#24" y="32.565"/><use xlink:href="#25" y="34.736"/><use xlink:href="#26" y="36.907"/><use xlink:href="#27" y="39.078"/><use xlink:href="#28" y="41.249"/><use xlink:href="#29" y="43.42"/><use xlink:href="#30" y="45.591"/><use xlink:href="#31" y="47.762"/><use xlink:href="#32" y="49.933"/></svg><svg x="8268"><use xlink:href="#a"/><use xlink:href="#b" x="15.996" y="49.908"/><use xlink:href="#9"/><use xlink:href="#10" y="2.171"/><use xlink:href="#11" y="4.342"/><use xlink:href="#12" y="6.513"/><use xlink:href="#13" y="8.684"/><use xlink:href="#14" y="10.855"/><use xlink:href="#15" y="13.026"/><use xlink:href="#16" y="15.197"/><use xlink:href="#17" y="17.368"/><use xlink:href="#18" y="19.539"/><use xlink:href="#19" y="21.71"/><use xlink:href="#20" y="23.881"/><use xlink:href="#21" y="26.052"/><use xlink:href="#22" y="28.223"/><use xlink:href="#23" y="30.394"/><use xlink:href="#24" y="32.565"/><use xlink:href="#25" y="34.736"/><use xlink:href="#26" y="36.907"/><use xlink:href="#27" y="39.078"/><use xlink:href="#28" y="41.249"/><use xlink:href="#29" y="43.42"/><use xlink:href="#30" y="45.591"/><use xlink:href="#31" y="47.762"/><use xlink:href="#32" y="49.933"/></svg><svg x="8424"><use xlink:href="#a"/><use xlink:href="#b" x="1.996" y="49.908"/><use xlink:href="#10"/><use xlink:href="#11" y="2.171"/><use xlink:href="#12" y="4.342"/><use xlink:href="#13" y="6.513"/><use xlink:href="#14" y="8.684"/><use xlink:href="#15" y="10.855"/><use xlink:href="#16" y="13.026"/><use xlink:href="#17" y="15.197"/><use xlink:href="#18" y="17.368"/><use xlink:href="#19" y="19.539"/><use xlink:href="#20" y="21.71"/><use xlink:href="#21" y="23.881"/><use xlink:href="#22" y="26.052"/><use xlink:href="#23" y="28.223"/><use xlink:href="#24" y="30.394"/><use xlink:href="#25" y="32.565"/><use xlink:href="#26" y="34.736"/><use xlink:href="#27" y="36.907"/><use xlink:href="#28" y="39.078"/><use xlink:href="#29" y="41.249"/><use xlink:href="#30" y="43.42"/><use xlink:href="#31" y="45.591"/><use xlink:href="#33" y="47.762"/><use xlink:href="#5" y="49.933"/></svg><svg x="8580"><use xlink:href="#a"/><use xlink:href="#b" x="-.004" y="49.908"/><use xlink:href="#12"/><use xlink:href="#13" y="2.171"/><use xlink:href="#14" y="4.342"/><use xlink:href="#15" y="6.513"/><use xlink:href="#16" y="8.684"/><use xlink:href="#17" y="10.855"/><use xlink:href="#18" y="13.026"/><use xlink:href="#19" y="15.197"/><use xlink:href="#20" y="17.368"/><use xlink:href="#21" y="19.539"/><use xlink:href="#22" y="21.71"/><use xlink:href="#23" y="23.881"/><use xlink:href="#24" y="26.052"/><use xlink:href="#25" y="28.223"/><use xlink:href="#26" y="30.394"/><use xlink:href="#27" y="32.565"/><use xlink:href="#28" y="34.736"/><use xlink:href="#29" y="36.907"/><use xlink:href="#30" y="39.078"/><use xlink:href="#31" y="41.249"/><use xlink:href="#33" y="43.42"/><use xlink:href="#5" y="45.591"/><text y="49.432" class="c">exit</text></svg></svg></g></g></svg></svg>