<svg xmlns="http://www.w3.org/2000/svg" viewBox="0 0 48 48" role="img" aria-label="Kairos">
<defs><linearGradient id="g1" x1="0%" y1="0%" x2="100%" y2="100%">
<stop offset="0%" stop-color="#00bcd4"/><stop offset="100%" stop-color="#1a237e"/></linearGradient></defs>
<circle cx="24" cy="24" r="23" fill="#0d1117"/>
<circle cx="24" cy="24" r="22" fill="none" stroke="#00e5ff" stroke-width="0.8" opacity="0.6"/>
<path d="M17 10 L31 10 L25.5 22.5 L24 24 L22.5 22.5 L17 10 Z" fill="url(#g1)" opacity="0.9"/>
<path d="M17 38 L31 38 L25.5 25.5 L24 24 L22.5 25.5 L17 38 Z" fill="url(#g1)" opacity="0.9"/>
<path d="M16 9 L32 9" stroke="#00e5ff" stroke-width="1.5" stroke-linecap="round"/>
<path d="M16 39 L32 39" stroke="#00e5ff" stroke-width="1.5" stroke-linecap="round"/>
<path d="M12 20 C9 18 5 17 3 18 C5 20 8 22 12 23" fill="#00bcd4" opacity="0.7"/>
<path d="M36 20 C39 18 43 17 45 18 C43 20 40 22 36 23" fill="#00bcd4" opacity="0.7"/>
<circle cx="24" cy="24" r="2.5" fill="#00e5ff"/><circle cx="24" cy="24" r="1.2" fill="#0d1117"/>
<circle cx="24" cy="15" r="0.6" fill="#ffab40" opacity="0.8"/><circle cx="24" cy="32" r="0.5" fill="#ffab40" opacity="0.6"/>
</svg>
