<svg xmlns="http://www.w3.org/2000/svg" xmlns:xlink="http://www.w3.org/1999/xlink" width="1260" height="477.62"><rect width="1260" height="477.62" rx="0" ry="0" class="a"/><svg height="477.62" viewBox="0 0 126 47.762" width="1260" xmlns="http://www.w3.org/2000/svg" xmlns:xlink="http://www.w3.org/1999/xlink"><style>@keyframes h{0%{transform:translateX(0)}1.05%{transform:translateX(-126px)}1.06%{transform:translateX(-504px)}7.16%{transform:translateX(-630px)}13.99%{transform:translateX(-882px)}19.26%{transform:translateX(-1134px)}20.38%{transform:translateX(-1260px)}29.34%{transform:translateX(-1386px)}29.88%{transform:translateX(-1512px)}29.89%{transform:translateX(-1638px)}35.49%{transform:translateX(-1764px)}38.4%{transform:translateX(-2016px)}39.49%{transform:translateX(-2142px)}46.32%{transform:translateX(-2268px)}48.48%{transform:translateX(-2394px)}50.49%{transform:translateX(-2520px)}52.31%{transform:translateX(-2646px)}53.93%{transform:translateX(-2772px)}56.06%{transform:translateX(-2898px)}58.04%{transform:translateX(-3024px)}60.06%{transform:translateX(-3150px)}62.25%{transform:translateX(-3276px)}65.1%{transform:translateX(-3402px)}65.64%{transform:translateX(-3528px)}72.58%{transform:translateX(-3654px)}69.72%{transform:translateX(-3780px)}71.46%{transform:translateX(-3906px)}72.97%{transform:translateX(-4032px)}74.49%{transform:translateX(-4158px)}76.13%{transform:translateX(-4284px)}77.83%{transform:translateX(-4536px)}79.45%{transform:translateX(-4662px)}80.92%{transform:translateX(-4788px)}82.44%{transform:translateX(-4914px)}84.12%{transform:translateX(-5040px)}85.55%{transform:translateX(-5166px)}86.83%{transform:translateX(-5292px)}88.21%{transform:translateX(-5418px)}89.95%{transform:translateX(-5544px)}91.5%{transform:translateX(-5670px)}93.65%{transform:translateX(-5796px)}93.66%{transform:translateX(-5922px)}94.11%{transform:translateX(-6300px)}to{transform:translateX(-6426px)}}.a{fill:#282d35}.c{white-space:pre}.c,.d{fill:#b9c0cb}.e{fill:#282d35;white-space:pre}</style><g font-family="Monaco,Consolas,Menlo,'Bitstream Vera Sans Mono','Powerline Symbols',monospace" font-size="1.67"><defs><symbol id="1"><text y="1.67" class="c">[whenry@elijah</text><text x="15.03" y="1.67" class="c">aws-tools]$</text></symbol><symbol id="2"><text y="1.67" class="c">[whenry@elijah</text><text x="15.03" y="1.67" class="c">aws-tools]$</text><path class="d" d="M27.054 0h51v2.171h-51z"/><text x="27.054" y="1.67" class="e">python s3-create.py -b wh-my-bucket -r us-west-2 -p</text></symbol><symbol id="3"><text y="1.67" class="c">[whenry@elijah</text><text x="15.03" y="1.67" class="c">aws-tools]$</text><text x="27.054" y="1.67" class="c">python</text><text x="34.068" y="1.67" class="c">s3-create.py</text><text x="47.094" y="1.67" class="c">-b</text><text x="50.1" y="1.67" class="c">wh-my-bucket</text><text x="63.126" y="1.67" class="c">-r</text><text x="66.132" y="1.67" class="c">us-west-2</text><text x="76.152" y="1.67" class="c">-p</text></symbol><symbol id="4"><text y="1.67" class="c">Creating</text><text x="9.018" y="1.67" class="c">S3</text><text x="12.024" y="1.67" class="c">Bucket:</text><text x="21.042" y="1.67" class="c">wh-my-bucket</text></symbol><symbol id="5"><text y="1.67" class="c">Target</text><text x="7.014" y="1.67" class="c">S3</text><text x="10.02" y="1.67" class="c">Bucket</text><text x="17.034" y="1.67" class="c">Region:</text><text x="26.052" y="1.67" class="c">us-west-2</text></symbol><symbol id="6"><text y="1.67" class="c">WARNING:</text><text x="9.018" y="1.67" class="c">S3</text><text x="12.024" y="1.67" class="c">Bucket</text><text x="19.038" y="1.67" class="c">will</text><text x="24.048" y="1.67" class="c">be</text><text x="27.054" y="1.67" class="c">made</text><text x="32.064" y="1.67" class="c">public.</text></symbol><symbol id="7"><text y="1.67" class="c">s3.Bucket(name=&apos;wh-my-bucket&apos;)</text></symbol><symbol id="8"><text y="1.67" class="c">[whenry@elijah</text><text x="15.03" y="1.67" class="c">aws-tools]$</text><text x="27.054" y="1.67" class="c">python</text><text x="34.068" y="1.67" class="c">s3-sync-buckets.py</text><text x="53.106" y="1.67" class="c">-s</text><text x="56.112" y="1.67" class="c">com.validated-patterns.xray-source</text><text x="91.182" y="1.67" class="c">-t</text><text x="94.188" y="1.67" class="c">wh-my-bucket</text><text x="107.214" y="1.67" class="c">-r</text><text x="110.22" y="1.67" class="c">us-west-2</text></symbol><symbol id="9"><text y="1.67" class="c">Source</text><text x="7.014" y="1.67" class="c">S3</text><text x="10.02" y="1.67" class="c">Bucket:</text><text x="19.038" y="1.67" class="c">com.validated-patterns.xray-source</text></symbol><symbol id="10"><text y="1.67" class="c">Target</text><text x="7.014" y="1.67" class="c">S3</text><text x="10.02" y="1.67" class="c">Bucket:</text><text x="19.038" y="1.67" class="c">wh-my-bucket</text></symbol><symbol id="11"><text y="1.67" class="c">NORMAL/demo_Adell</text><text x="18.036" y="1.67" class="c">Chiodi_9582_1966-04-15_2018-11-30.jpeg-</text><text x="58.116" y="1.67" class="c">File</text><text x="63.126" y="1.67" class="c">Copied</text></symbol><symbol id="12"><text y="1.67" class="c">NORMAL/demo_Agnes</text><text x="18.036" y="1.67" class="c">Angelo_3373_1964-09-12_2016-07-08.jpeg-</text><text x="58.116" y="1.67" class="c">File</text><text x="63.126" y="1.67" class="c">Copied</text></symbol><symbol id="13"><text y="1.67" class="c">NORMAL/demo_Albert</text><text x="19.038" y="1.67" class="c">Gibson_5314_1962-08-04_2016-05-31.jpeg-</text><text x="59.118" y="1.67" class="c">File</text><text x="64.128" y="1.67" class="c">Copied</text></symbol><symbol id="14"><text y="1.67" class="c">NORMAL/demo_Albert</text><text x="19.038" y="1.67" class="c">Jeffers_5101_1966-08-02_2018-05-30.jpeg-</text><text x="60.12" y="1.67" class="c">File</text><text x="65.13" y="1.67" class="c">Copied</text></symbol><symbol id="15"><text y="1.67" class="c">NORMAL/demo_Albert</text><text x="19.038" y="1.67" class="c">Matthews_4841_1964-07-06_2015-12-05.jpeg-</text><text x="61.122" y="1.67" class="c">File</text><text x="66.132" y="1.67" class="c">Copied</text></symbol><symbol id="16"><text y="1.67" class="c">NORMAL/demo_Alec</text><text x="17.034" y="1.67" class="c">Terry_5112_1967-07-25_2018-02-05.jpeg-</text><text x="56.112" y="1.67" class="c">File</text><text x="61.122" y="1.67" class="c">Copied</text></symbol><symbol id="17"><text y="1.67" class="c">NORMAL/demo_Aleida</text><text x="19.038" y="1.67" class="c">Harney_8155_1967-12-10_2016-01-25.jpeg-</text><text x="59.118" y="1.67" class="c">File</text><text x="64.128" y="1.67" class="c">Copied</text></symbol><symbol id="18"><text y="1.67" class="c">NORMAL/demo_Alfred</text><text x="19.038" y="1.67" class="c">Chico_3846_1949-01-04_2015-10-14.jpeg-</text><text x="58.116" y="1.67" class="c">File</text><text x="63.126" y="1.67" class="c">Copied</text></symbol><symbol id="19"><text y="1.67" class="c">NORMAL/demo_Alise</text><text x="18.036" y="1.67" class="c">Haller_9465_1954-12-21_2018-04-17.jpeg-</text><text x="58.116" y="1.67" class="c">File</text><text x="63.126" y="1.67" class="c">Copied</text></symbol><symbol id="20"><text y="1.67" class="c">............</text></symbol><symbol id="21"><text y="1.67" class="c">PNEUMONIA/demo_Adolph</text><text x="22.044" y="1.67" class="c">Matas_3136_1966-11-04_2017-12-01.jpeg-</text><text x="61.122" y="1.67" class="c">File</text><text x="66.132" y="1.67" class="c">Copied</text></symbol><symbol id="22"><text y="1.67" class="c">PNEUMONIA/demo_Alan</text><text x="20.04" y="1.67" class="c">Authement_9387_1953-04-08_2018-01-03.jpeg-</text><text x="63.126" y="1.67" class="c">File</text><text x="68.136" y="1.67" class="c">Copied</text></symbol><symbol id="23"><text y="1.67" class="c">PNEUMONIA/demo_Alan</text><text x="20.04" y="1.67" class="c">Litchfield_9473_1970-03-27_2015-10-08.jpeg-</text><text x="64.128" y="1.67" class="c">File</text><text x="69.138" y="1.67" class="c">Copied</text></symbol><symbol id="24"><text y="1.67" class="c">PNEUMONIA/demo_Albert</text><text x="22.044" y="1.67" class="c">Pimentel_8926_1946-02-10_2016-06-26.jpeg-</text><text x="64.128" y="1.67" class="c">File</text><text x="69.138" y="1.67" class="c">Copied</text></symbol><symbol id="25"><text y="1.67" class="c">PNEUMONIA/demo_Alene</text><text x="21.042" y="1.67" class="c">Helms_6590_1941-11-14_2015-05-18.jpeg-</text><text x="60.12" y="1.67" class="c">File</text><text x="65.13" y="1.67" class="c">Copied</text></symbol><symbol id="26"><text y="1.67" class="c">PNEUMONIA/demo_Alexander</text><text x="25.05" y="1.67" class="c">Arnone_1563_1959-08-24_2017-02-21.jpeg-</text><text x="65.13" y="1.67" class="c">File</text><text x="70.14" y="1.67" class="c">Copied</text></symbol><symbol id="27"><text y="1.67" class="c">PNEUMONIA/demo_Alfonso</text><text x="23.046" y="1.67" class="c">Martin_5044_1952-08-25_2015-05-05.jpeg-</text><text x="63.126" y="1.67" class="c">File</text><text x="68.136" y="1.67" class="c">Copied</text></symbol><symbol id="28"><text y="1.67" class="c">PNEUMONIA/demo_Alfredo</text><text x="23.046" y="1.67" class="c">Phillips_6073_1967-09-30_2017-09-26.jpeg-</text><text x="65.13" y="1.67" class="c">File</text><text x="70.14" y="1.67" class="c">Copied</text></symbol><symbol id="29"><text y="1.67" class="c">PNEUMONIA/demo_Alice</text><text x="21.042" y="1.67" class="c">Avery_4001_1970-03-31_2018-01-01.jpeg-</text><text x="60.12" y="1.67" class="c">File</text><text x="65.13" y="1.67" class="c">Copied</text></symbol><symbol id="30"><text y="1.67" class="c">PNEUMONIA/demo_Alice</text><text x="21.042" y="1.67" class="c">Richie_3437_1960-11-06_2017-01-16.jpeg-</text><text x="61.122" y="1.67" class="c">File</text><text x="66.132" y="1.67" class="c">Copied</text></symbol><symbol id="31"><text y="1.67" class="c">PNEUMONIA/demo_Wendi</text><text x="21.042" y="1.67" class="c">Rocha_8818_1946-06-26_2016-05-15.jpeg-</text><text x="60.12" y="1.67" class="c">File</text><text x="65.13" y="1.67" class="c">Copied</text></symbol><symbol id="32"><text y="1.67" class="c">PNEUMONIA/demo_William</text><text x="23.046" y="1.67" class="c">Balderrama_4202_1961-11-17_2016-04-02.jpeg-</text><text x="67.134" y="1.67" class="c">File</text><text x="72.144" y="1.67" class="c">Copied</text></symbol><symbol id="33"><text y="1.67" class="c">PNEUMONIA/demo_William</text><text x="23.046" y="1.67" class="c">Keys_9854_1956-03-30_2015-02-27.jpeg-</text><text x="61.122" y="1.67" class="c">File</text><text x="66.132" y="1.67" class="c">Copied</text></symbol><symbol id="34"><text y="1.67" class="c">PNEUMONIA/demo_William</text><text x="23.046" y="1.67" class="c">Mullins_7159_1951-02-12_2018-06-06.jpeg-</text><text x="64.128" y="1.67" class="c">File</text><text x="69.138" y="1.67" class="c">Copied</text></symbol><symbol id="35"><text y="1.67" class="c">PNEUMONIA/demo_Willie</text><text x="22.044" y="1.67" class="c">Hansen_1124_1960-09-29_2015-01-25.jpeg-</text><text x="62.124" y="1.67" class="c">File</text><text x="67.134" y="1.67" class="c">Copied</text></symbol><symbol id="36"><text y="1.67" class="c">PNEUMONIA/demo_Yesenia</text><text x="23.046" y="1.67" class="c">Norman_4968_1941-10-02_2017-12-02.jpeg-</text><text x="63.126" y="1.67" class="c">File</text><text x="68.136" y="1.67" class="c">Copied</text></symbol><symbol id="37"><text y="1.67" class="c">PNEUMONIA/demo_Zachary</text><text x="23.046" y="1.67" class="c">Jackson_8841_1966-04-26_2016-09-29.jpeg-</text><text x="64.128" y="1.67" class="c">File</text><text x="69.138" y="1.67" class="c">Copied</text></symbol><symbol id="38"><text y="1.67" class="c">Sync</text><text x="5.01" y="1.67" class="c">successful!</text></symbol><symbol id="a"><path fill="transparent" d="M0 0h126v22H0z"/></symbol><symbol id="b"><path fill="#6f7683" d="M0 0h1.102v2.171H0z"/></symbol></defs><path class="a" d="M0 0h126v47.762H0z"/><g style="animation-duration:20.566918s;animation-iteration-count:infinite;animation-name:h;animation-timing-function:steps(1,end)"><svg width="6552"><svg><use xlink:href="#a"/><use xlink:href="#b" x="-.004"/></svg><svg x="126"><use xlink:href="#a"/><use xlink:href="#b" x="-.004"/></svg><svg x="252"><use xlink:href="#a"/><use xlink:href="#b" x="-.004"/></svg><svg x="378"><use xlink:href="#a"/><use xlink:href="#b" x="-.004"/></svg><svg x="504"><use xlink:href="#a"/><use xlink:href="#b" x="26.996"/><use xlink:href="#1"/></svg><svg x="630"><use xlink:href="#a"/><use xlink:href="#b" x="77.996"/><use xlink:href="#2"/></svg><svg x="756"><use xlink:href="#a"/><use xlink:href="#b" x="77.996"/><use xlink:href="#2"/></svg><svg x="882"><use xlink:href="#a"/><use xlink:href="#b" x="77.996"/><use xlink:href="#3"/></svg><svg x="1008"><use xlink:href="#a"/><use xlink:href="#b" x="-.004" y="2.146"/><use xlink:href="#3"/></svg><svg x="1134"><use xlink:href="#a"/><use xlink:href="#b" x="-.004" y="2.146"/><use xlink:href="#3"/></svg><svg x="1260"><use xlink:href="#a"/><use xlink:href="#b" x="-.004" y="8.659"/><use xlink:href="#3"/><use xlink:href="#4" y="2.171"/><use xlink:href="#5" y="4.342"/><use xlink:href="#6" y="6.513"/></svg><svg x="1386"><use xlink:href="#a"/><use xlink:href="#b" x="-.004" y="10.83"/><use xlink:href="#3"/><use xlink:href="#4" y="2.171"/><use xlink:href="#5" y="4.342"/><use xlink:href="#6" y="6.513"/><use xlink:href="#7" y="8.684"/></svg><svg x="1512"><use xlink:href="#a"/><use xlink:href="#b" x="-.004" y="10.83"/><use xlink:href="#3"/><use xlink:href="#4" y="2.171"/><use xlink:href="#5" y="4.342"/><use xlink:href="#6" y="6.513"/><use xlink:href="#7" y="8.684"/></svg><svg x="1638"><use xlink:href="#a"/><use xlink:href="#b" x="26.996" y="10.83"/><use xlink:href="#3"/><use xlink:href="#4" y="2.171"/><use xlink:href="#5" y="4.342"/><use xlink:href="#6" y="6.513"/><use xlink:href="#7" y="8.684"/><use xlink:href="#1" y="10.855"/></svg><svg x="1764"><use xlink:href="#a"/><use xlink:href="#b" x="120.996" y="10.83"/><use xlink:href="#3"/><use xlink:href="#4" y="2.171"/><use xlink:href="#5" y="4.342"/><use xlink:href="#6" y="6.513"/><use xlink:href="#7" y="8.684"/><text y="12.525" class="c">[whenry@elijah</text><text x="15.03" y="12.525" class="c">aws-tools]$</text><path class="d" d="M27.054 10.855h94v2.171h-94z"/><text x="27.054" y="12.525" class="e">python s3-sync-buckets.py -s com.validated-patterns.xray-source -t wh-my-bucket -r us-west-2</text></svg><svg x="1890"><use xlink:href="#a"/><use xlink:href="#b" x="-.004" y="13.001"/><use xlink:href="#3"/><use xlink:href="#4" y="2.171"/><use xlink:href="#5" y="4.342"/><use xlink:href="#6" y="6.513"/><use xlink:href="#7" y="8.684"/><use xlink:href="#8" y="10.855"/></svg><svg x="2016"><use xlink:href="#a"/><use xlink:href="#b" x="-.004" y="13.001"/><use xlink:href="#3"/><use xlink:href="#4" y="2.171"/><use xlink:href="#5" y="4.342"/><use xlink:href="#6" y="6.513"/><use xlink:href="#7" y="8.684"/><use xlink:href="#8" y="10.855"/></svg><svg x="2142"><use xlink:href="#a"/><use xlink:href="#b" x="-.004" y="17.343"/><use xlink:href="#3"/><use xlink:href="#4" y="2.171"/><use xlink:href="#5" y="4.342"/><use xlink:href="#6" y="6.513"/><use xlink:href="#7" y="8.684"/><use xlink:href="#8" y="10.855"/><use xlink:href="#9" y="13.026"/><use xlink:href="#10" y="15.197"/></svg><svg x="2268"><use xlink:href="#a"/><use xlink:href="#b" x="-.004" y="19.514"/><use xlink:href="#3"/><use xlink:href="#4" y="2.171"/><use xlink:href="#5" y="4.342"/><use xlink:href="#6" y="6.513"/><use xlink:href="#7" y="8.684"/><use xlink:href="#8" y="10.855"/><use xlink:href="#9" y="13.026"/><use xlink:href="#10" y="15.197"/><use xlink:href="#11" y="17.368"/></svg><svg x="2394"><use xlink:href="#a"/><use xlink:href="#b" x="-.004" y="21.685"/><use xlink:href="#3"/><use xlink:href="#4" y="2.171"/><use xlink:href="#5" y="4.342"/><use xlink:href="#6" y="6.513"/><use xlink:href="#7" y="8.684"/><use xlink:href="#8" y="10.855"/><use xlink:href="#9" y="13.026"/><use xlink:href="#10" y="15.197"/><use xlink:href="#11" y="17.368"/><use xlink:href="#12" y="19.539"/></svg><svg x="2520"><use xlink:href="#a"/><use xlink:href="#b" x="-.004" y="23.856"/><use xlink:href="#3"/><use xlink:href="#4" y="2.171"/><use xlink:href="#5" y="4.342"/><use xlink:href="#6" y="6.513"/><use xlink:href="#7" y="8.684"/><use xlink:href="#8" y="10.855"/><use xlink:href="#9" y="13.026"/><use xlink:href="#10" y="15.197"/><use xlink:href="#11" y="17.368"/><use xlink:href="#12" y="19.539"/><use xlink:href="#13" y="21.71"/></svg><svg x="2646"><use xlink:href="#a"/><use xlink:href="#b" x="-.004" y="26.027"/><use xlink:href="#3"/><use xlink:href="#4" y="2.171"/><use xlink:href="#5" y="4.342"/><use xlink:href="#6" y="6.513"/><use xlink:href="#7" y="8.684"/><use xlink:href="#8" y="10.855"/><use xlink:href="#9" y="13.026"/><use xlink:href="#10" y="15.197"/><use xlink:href="#11" y="17.368"/><use xlink:href="#12" y="19.539"/><use xlink:href="#13" y="21.71"/><use xlink:href="#14" y="23.881"/></svg><svg x="2772"><use xlink:href="#a"/><use xlink:href="#b" x="-.004" y="28.198"/><use xlink:href="#3"/><use xlink:href="#4" y="2.171"/><use xlink:href="#5" y="4.342"/><use xlink:href="#6" y="6.513"/><use xlink:href="#7" y="8.684"/><use xlink:href="#8" y="10.855"/><use xlink:href="#9" y="13.026"/><use xlink:href="#10" y="15.197"/><use xlink:href="#11" y="17.368"/><use xlink:href="#12" y="19.539"/><use xlink:href="#13" y="21.71"/><use xlink:href="#14" y="23.881"/><use xlink:href="#15" y="26.052"/></svg><svg x="2898"><use xlink:href="#a"/><use xlink:href="#b" x="-.004" y="30.369"/><use xlink:href="#3"/><use xlink:href="#4" y="2.171"/><use xlink:href="#5" y="4.342"/><use xlink:href="#6" y="6.513"/><use xlink:href="#7" y="8.684"/><use xlink:href="#8" y="10.855"/><use xlink:href="#9" y="13.026"/><use xlink:href="#10" y="15.197"/><use xlink:href="#11" y="17.368"/><use xlink:href="#12" y="19.539"/><use xlink:href="#13" y="21.71"/><use xlink:href="#14" y="23.881"/><use xlink:href="#15" y="26.052"/><use xlink:href="#16" y="28.223"/></svg><svg x="3024"><use xlink:href="#a"/><use xlink:href="#b" x="-.004" y="32.54"/><use xlink:href="#3"/><use xlink:href="#4" y="2.171"/><use xlink:href="#5" y="4.342"/><use xlink:href="#6" y="6.513"/><use xlink:href="#7" y="8.684"/><use xlink:href="#8" y="10.855"/><use xlink:href="#9" y="13.026"/><use xlink:href="#10" y="15.197"/><use xlink:href="#11" y="17.368"/><use xlink:href="#12" y="19.539"/><use xlink:href="#13" y="21.71"/><use xlink:href="#14" y="23.881"/><use xlink:href="#15" y="26.052"/><use xlink:href="#16" y="28.223"/><use xlink:href="#17" y="30.394"/></svg><svg x="3150"><use xlink:href="#a"/><use xlink:href="#b" x="-.004" y="34.711"/><use xlink:href="#3"/><use xlink:href="#4" y="2.171"/><use xlink:href="#5" y="4.342"/><use xlink:href="#6" y="6.513"/><use xlink:href="#7" y="8.684"/><use xlink:href="#8" y="10.855"/><use xlink:href="#9" y="13.026"/><use xlink:href="#10" y="15.197"/><use xlink:href="#11" y="17.368"/><use xlink:href="#12" y="19.539"/><use xlink:href="#13" y="21.71"/><use xlink:href="#14" y="23.881"/><use xlink:href="#15" y="26.052"/><use xlink:href="#16" y="28.223"/><use xlink:href="#17" y="30.394"/><use xlink:href="#18" y="32.565"/></svg><svg x="3276"><use xlink:href="#a"/><use xlink:href="#b" x="-.004" y="36.882"/><use xlink:href="#3"/><use xlink:href="#4" y="2.171"/><use xlink:href="#5" y="4.342"/><use xlink:href="#6" y="6.513"/><use xlink:href="#7" y="8.684"/><use xlink:href="#8" y="10.855"/><use xlink:href="#9" y="13.026"/><use xlink:href="#10" y="15.197"/><use xlink:href="#11" y="17.368"/><use xlink:href="#12" y="19.539"/><use xlink:href="#13" y="21.71"/><use xlink:href="#14" y="23.881"/><use xlink:href="#15" y="26.052"/><use xlink:href="#16" y="28.223"/><use xlink:href="#17" y="30.394"/><use xlink:href="#18" y="32.565"/><use xlink:href="#19" y="34.736"/></svg><svg x="3402"><use xlink:href="#a"/><use xlink:href="#b" x="-.004" y="39.053"/><use xlink:href="#3"/><use xlink:href="#4" y="2.171"/><use xlink:href="#5" y="4.342"/><use xlink:href="#6" y="6.513"/><use xlink:href="#7" y="8.684"/><use xlink:href="#8" y="10.855"/><use xlink:href="#9" y="13.026"/><use xlink:href="#10" y="15.197"/><use xlink:href="#11" y="17.368"/><use xlink:href="#12" y="19.539"/><use xlink:href="#13" y="21.71"/><use xlink:href="#14" y="23.881"/><use xlink:href="#15" y="26.052"/><use xlink:href="#16" y="28.223"/><use xlink:href="#17" y="30.394"/><use xlink:href="#18" y="32.565"/><use xlink:href="#19" y="34.736"/><use xlink:href="#20" y="36.907"/></svg><svg x="3528"><use xlink:href="#a"/><use xlink:href="#b" x="-.004" y="41.224"/><use xlink:href="#3"/><use xlink:href="#4" y="2.171"/><use xlink:href="#5" y="4.342"/><use xlink:href="#6" y="6.513"/><use xlink:href="#7" y="8.684"/><use xlink:href="#8" y="10.855"/><use xlink:href="#9" y="13.026"/><use xlink:href="#10" y="15.197"/><use xlink:href="#11" y="17.368"/><use xlink:href="#12" y="19.539"/><use xlink:href="#13" y="21.71"/><use xlink:href="#14" y="23.881"/><use xlink:href="#15" y="26.052"/><use xlink:href="#16" y="28.223"/><use xlink:href="#17" y="30.394"/><use xlink:href="#18" y="32.565"/><use xlink:href="#19" y="34.736"/><use xlink:href="#20" y="36.907"/><use xlink:href="#20" y="39.078"/></svg><svg x="3654"><use xlink:href="#a"/><use xlink:href="#b" x="-.004" y="43.395"/><use xlink:href="#3"/><use xlink:href="#4" y="2.171"/><use xlink:href="#5" y="4.342"/><use xlink:href="#6" y="6.513"/><use xlink:href="#7" y="8.684"/><use xlink:href="#8" y="10.855"/><use xlink:href="#9" y="13.026"/><use xlink:href="#10" y="15.197"/><use xlink:href="#11" y="17.368"/><use xlink:href="#12" y="19.539"/><use xlink:href="#13" y="21.71"/><use xlink:href="#14" y="23.881"/><use xlink:href="#15" y="26.052"/><use xlink:href="#16" y="28.223"/><use xlink:href="#17" y="30.394"/><use xlink:href="#18" y="32.565"/><use xlink:href="#19" y="34.736"/><use xlink:href="#20" y="36.907"/><use xlink:href="#20" y="39.078"/><use xlink:href="#21" y="41.249"/></svg><svg x="3780"><use xlink:href="#a"/><use xlink:href="#b" x="-.004" y="45.566"/><use xlink:href="#3"/><use xlink:href="#4" y="2.171"/><use xlink:href="#5" y="4.342"/><use xlink:href="#6" y="6.513"/><use xlink:href="#7" y="8.684"/><use xlink:href="#8" y="10.855"/><use xlink:href="#9" y="13.026"/><use xlink:href="#10" y="15.197"/><use xlink:href="#11" y="17.368"/><use xlink:href="#12" y="19.539"/><use xlink:href="#13" y="21.71"/><use xlink:href="#14" y="23.881"/><use xlink:href="#15" y="26.052"/><use xlink:href="#16" y="28.223"/><use xlink:href="#17" y="30.394"/><use xlink:href="#18" y="32.565"/><use xlink:href="#19" y="34.736"/><use xlink:href="#20" y="36.907"/><use xlink:href="#20" y="39.078"/><use xlink:href="#21" y="41.249"/><use xlink:href="#22" y="43.42"/></svg><svg x="3906"><use xlink:href="#a"/><use xlink:href="#b" x="-.004" y="45.566"/><use xlink:href="#4"/><use xlink:href="#5" y="2.171"/><use xlink:href="#6" y="4.342"/><use xlink:href="#7" y="6.513"/><use xlink:href="#8" y="8.684"/><use xlink:href="#9" y="10.855"/><use xlink:href="#10" y="13.026"/><use xlink:href="#11" y="15.197"/><use xlink:href="#12" y="17.368"/><use xlink:href="#13" y="19.539"/><use xlink:href="#14" y="21.71"/><use xlink:href="#15" y="23.881"/><use xlink:href="#16" y="26.052"/><use xlink:href="#17" y="28.223"/><use xlink:href="#18" y="30.394"/><use xlink:href="#19" y="32.565"/><use xlink:href="#20" y="34.736"/><use xlink:href="#20" y="36.907"/><use xlink:href="#21" y="39.078"/><use xlink:href="#22" y="41.249"/><use xlink:href="#23" y="43.42"/></svg><svg x="4032"><use xlink:href="#a"/><use xlink:href="#b" x="-.004" y="45.566"/><use xlink:href="#5"/><use xlink:href="#6" y="2.171"/><use xlink:href="#7" y="4.342"/><use xlink:href="#8" y="6.513"/><use xlink:href="#9" y="8.684"/><use xlink:href="#10" y="10.855"/><use xlink:href="#11" y="13.026"/><use xlink:href="#12" y="15.197"/><use xlink:href="#13" y="17.368"/><use xlink:href="#14" y="19.539"/><use xlink:href="#15" y="21.71"/><use xlink:href="#16" y="23.881"/><use xlink:href="#17" y="26.052"/><use xlink:href="#18" y="28.223"/><use xlink:href="#19" y="30.394"/><use xlink:href="#20" y="32.565"/><use xlink:href="#20" y="34.736"/><use xlink:href="#21" y="36.907"/><use xlink:href="#22" y="39.078"/><use xlink:href="#23" y="41.249"/><use xlink:href="#24" y="43.42"/></svg><svg x="4158"><use xlink:href="#a"/><use xlink:href="#b" x="-.004" y="45.566"/><use xlink:href="#6"/><use xlink:href="#7" y="2.171"/><use xlink:href="#8" y="4.342"/><use xlink:href="#9" y="6.513"/><use xlink:href="#10" y="8.684"/><use xlink:href="#11" y="10.855"/><use xlink:href="#12" y="13.026"/><use xlink:href="#13" y="15.197"/><use xlink:href="#14" y="17.368"/><use xlink:href="#15" y="19.539"/><use xlink:href="#16" y="21.71"/><use xlink:href="#17" y="23.881"/><use xlink:href="#18" y="26.052"/><use xlink:href="#19" y="28.223"/><use xlink:href="#20" y="30.394"/><use xlink:href="#20" y="32.565"/><use xlink:href="#21" y="34.736"/><use xlink:href="#22" y="36.907"/><use xlink:href="#23" y="39.078"/><use xlink:href="#24" y="41.249"/><use xlink:href="#25" y="43.42"/></svg><svg x="4284"><use xlink:href="#a"/><use xlink:href="#b" x="-.004" y="45.566"/><use xlink:href="#7"/><use xlink:href="#8" y="2.171"/><use xlink:href="#9" y="4.342"/><use xlink:href="#10" y="6.513"/><use xlink:href="#11" y="8.684"/><use xlink:href="#12" y="10.855"/><use xlink:href="#13" y="13.026"/><use xlink:href="#14" y="15.197"/><use xlink:href="#15" y="17.368"/><use xlink:href="#16" y="19.539"/><use xlink:href="#17" y="21.71"/><use xlink:href="#18" y="23.881"/><use xlink:href="#19" y="26.052"/><use xlink:href="#20" y="28.223"/><use xlink:href="#20" y="30.394"/><use xlink:href="#21" y="32.565"/><use xlink:href="#22" y="34.736"/><use xlink:href="#23" y="36.907"/><use xlink:href="#24" y="39.078"/><use xlink:href="#25" y="41.249"/><use xlink:href="#26" y="43.42"/></svg><svg x="4410"><use xlink:href="#a"/><use xlink:href="#b" x="73.996" y="45.566"/><use xlink:href="#7"/><use xlink:href="#8" y="2.171"/><use xlink:href="#9" y="4.342"/><use xlink:href="#10" y="6.513"/><use xlink:href="#11" y="8.684"/><use xlink:href="#12" y="10.855"/><use xlink:href="#13" y="13.026"/><use xlink:href="#14" y="15.197"/><use xlink:href="#15" y="17.368"/><use xlink:href="#16" y="19.539"/><use xlink:href="#17" y="21.71"/><use xlink:href="#18" y="23.881"/><use xlink:href="#19" y="26.052"/><use xlink:href="#20" y="28.223"/><use xlink:href="#20" y="30.394"/><use xlink:href="#21" y="32.565"/><use xlink:href="#22" y="34.736"/><use xlink:href="#23" y="36.907"/><use xlink:href="#24" y="39.078"/><use xlink:href="#25" y="41.249"/><use xlink:href="#26" y="43.42"/><use xlink:href="#27" y="45.591"/></svg><svg x="4536"><use xlink:href="#a"/><use xlink:href="#b" x="-.004" y="45.566"/><use xlink:href="#8"/><use xlink:href="#9" y="2.171"/><use xlink:href="#10" y="4.342"/><use xlink:href="#11" y="6.513"/><use xlink:href="#12" y="8.684"/><use xlink:href="#13" y="10.855"/><use xlink:href="#14" y="13.026"/><use xlink:href="#15" y="15.197"/><use xlink:href="#16" y="17.368"/><use xlink:href="#17" y="19.539"/><use xlink:href="#18" y="21.71"/><use xlink:href="#19" y="23.881"/><use xlink:href="#20" y="26.052"/><use xlink:href="#20" y="28.223"/><use xlink:href="#21" y="30.394"/><use xlink:href="#22" y="32.565"/><use xlink:href="#23" y="34.736"/><use xlink:href="#24" y="36.907"/><use xlink:href="#25" y="39.078"/><use xlink:href="#26" y="41.249"/><use xlink:href="#27" y="43.42"/></svg><svg x="4662"><use xlink:href="#a"/><use xlink:href="#b" x="-.004" y="45.566"/><use xlink:href="#9"/><use xlink:href="#10" y="2.171"/><use xlink:href="#11" y="4.342"/><use xlink:href="#12" y="6.513"/><use xlink:href="#13" y="8.684"/><use xlink:href="#14" y="10.855"/><use xlink:href="#15" y="13.026"/><use xlink:href="#16" y="15.197"/><use xlink:href="#17" y="17.368"/><use xlink:href="#18" y="19.539"/><use xlink:href="#19" y="21.71"/><use xlink:href="#20" y="23.881"/><use xlink:href="#20" y="26.052"/><use xlink:href="#21" y="28.223"/><use xlink:href="#22" y="30.394"/><use xlink:href="#23" y="32.565"/><use xlink:href="#24" y="34.736"/><use xlink:href="#25" y="36.907"/><use xlink:href="#26" y="39.078"/><use xlink:href="#27" y="41.249"/><use xlink:href="#28" y="43.42"/></svg><svg x="4788"><use xlink:href="#a"/><use xlink:href="#b" x="-.004" y="45.566"/><use xlink:href="#10"/><use xlink:href="#11" y="2.171"/><use xlink:href="#12" y="4.342"/><use xlink:href="#13" y="6.513"/><use xlink:href="#14" y="8.684"/><use xlink:href="#15" y="10.855"/><use xlink:href="#16" y="13.026"/><use xlink:href="#17" y="15.197"/><use xlink:href="#18" y="17.368"/><use xlink:href="#19" y="19.539"/><use xlink:href="#20" y="21.71"/><use xlink:href="#20" y="23.881"/><use xlink:href="#21" y="26.052"/><use xlink:href="#22" y="28.223"/><use xlink:href="#23" y="30.394"/><use xlink:href="#24" y="32.565"/><use xlink:href="#25" y="34.736"/><use xlink:href="#26" y="36.907"/><use xlink:href="#27" y="39.078"/><use xlink:href="#28" y="41.249"/><use xlink:href="#29" y="43.42"/></svg><svg x="4914"><use xlink:href="#a"/><use xlink:href="#b" x="-.004" y="45.566"/><use xlink:href="#11"/><use xlink:href="#12" y="2.171"/><use xlink:href="#13" y="4.342"/><use xlink:href="#14" y="6.513"/><use xlink:href="#15" y="8.684"/><use xlink:href="#16" y="10.855"/><use xlink:href="#17" y="13.026"/><use xlink:href="#18" y="15.197"/><use xlink:href="#19" y="17.368"/><use xlink:href="#20" y="19.539"/><use xlink:href="#20" y="21.71"/><use xlink:href="#21" y="23.881"/><use xlink:href="#22" y="26.052"/><use xlink:href="#23" y="28.223"/><use xlink:href="#24" y="30.394"/><use xlink:href="#25" y="32.565"/><use xlink:href="#26" y="34.736"/><use xlink:href="#27" y="36.907"/><use xlink:href="#28" y="39.078"/><use xlink:href="#29" y="41.249"/><use xlink:href="#30" y="43.42"/></svg><svg x="5040"><use xlink:href="#a"/><use xlink:href="#b" x="-.004" y="45.566"/><use xlink:href="#12"/><use xlink:href="#13" y="2.171"/><use xlink:href="#14" y="4.342"/><use xlink:href="#15" y="6.513"/><use xlink:href="#16" y="8.684"/><use xlink:href="#17" y="10.855"/><use xlink:href="#18" y="13.026"/><use xlink:href="#19" y="15.197"/><use xlink:href="#20" y="17.368"/><use xlink:href="#20" y="19.539"/><use xlink:href="#21" y="21.71"/><use xlink:href="#22" y="23.881"/><use xlink:href="#23" y="26.052"/><use xlink:href="#24" y="28.223"/><use xlink:href="#25" y="30.394"/><use xlink:href="#26" y="32.565"/><use xlink:href="#27" y="34.736"/><use xlink:href="#28" y="36.907"/><use xlink:href="#29" y="39.078"/><use xlink:href="#30" y="41.249"/><use xlink:href="#31" y="43.42"/></svg><svg x="5166"><use xlink:href="#a"/><use xlink:href="#b" x="-.004" y="45.566"/><use xlink:href="#13"/><use xlink:href="#14" y="2.171"/><use xlink:href="#15" y="4.342"/><use xlink:href="#16" y="6.513"/><use xlink:href="#17" y="8.684"/><use xlink:href="#18" y="10.855"/><use xlink:href="#19" y="13.026"/><use xlink:href="#20" y="15.197"/><use xlink:href="#20" y="17.368"/><use xlink:href="#21" y="19.539"/><use xlink:href="#22" y="21.71"/><use xlink:href="#23" y="23.881"/><use xlink:href="#24" y="26.052"/><use xlink:href="#25" y="28.223"/><use xlink:href="#26" y="30.394"/><use xlink:href="#27" y="32.565"/><use xlink:href="#28" y="34.736"/><use xlink:href="#29" y="36.907"/><use xlink:href="#30" y="39.078"/><use xlink:href="#31" y="41.249"/><use xlink:href="#32" y="43.42"/></svg><svg x="5292"><use xlink:href="#a"/><use xlink:href="#b" x="-.004" y="45.566"/><use xlink:href="#14"/><use xlink:href="#15" y="2.171"/><use xlink:href="#16" y="4.342"/><use xlink:href="#17" y="6.513"/><use xlink:href="#18" y="8.684"/><use xlink:href="#19" y="10.855"/><use xlink:href="#20" y="13.026"/><use xlink:href="#20" y="15.197"/><use xlink:href="#21" y="17.368"/><use xlink:href="#22" y="19.539"/><use xlink:href="#23" y="21.71"/><use xlink:href="#24" y="23.881"/><use xlink:href="#25" y="26.052"/><use xlink:href="#26" y="28.223"/><use xlink:href="#27" y="30.394"/><use xlink:href="#28" y="32.565"/><use xlink:href="#29" y="34.736"/><use xlink:href="#30" y="36.907"/><use xlink:href="#31" y="39.078"/><use xlink:href="#32" y="41.249"/><use xlink:href="#33" y="43.42"/></svg><svg x="5418"><use xlink:href="#a"/><use xlink:href="#b" x="-.004" y="45.566"/><use xlink:href="#15"/><use xlink:href="#16" y="2.171"/><use xlink:href="#17" y="4.342"/><use xlink:href="#18" y="6.513"/><use xlink:href="#19" y="8.684"/><use xlink:href="#20" y="10.855"/><use xlink:href="#20" y="13.026"/><use xlink:href="#21" y="15.197"/><use xlink:href="#22" y="17.368"/><use xlink:href="#23" y="19.539"/><use xlink:href="#24" y="21.71"/><use xlink:href="#25" y="23.881"/><use xlink:href="#26" y="26.052"/><use xlink:href="#27" y="28.223"/><use xlink:href="#28" y="30.394"/><use xlink:href="#29" y="32.565"/><use xlink:href="#30" y="34.736"/><use xlink:href="#31" y="36.907"/><use xlink:href="#32" y="39.078"/><use xlink:href="#33" y="41.249"/><use xlink:href="#34" y="43.42"/></svg><svg x="5544"><use xlink:href="#a"/><use xlink:href="#b" x="-.004" y="45.566"/><use xlink:href="#16"/><use xlink:href="#17" y="2.171"/><use xlink:href="#18" y="4.342"/><use xlink:href="#19" y="6.513"/><use xlink:href="#20" y="8.684"/><use xlink:href="#20" y="10.855"/><use xlink:href="#21" y="13.026"/><use xlink:href="#22" y="15.197"/><use xlink:href="#23" y="17.368"/><use xlink:href="#24" y="19.539"/><use xlink:href="#25" y="21.71"/><use xlink:href="#26" y="23.881"/><use xlink:href="#27" y="26.052"/><use xlink:href="#28" y="28.223"/><use xlink:href="#29" y="30.394"/><use xlink:href="#30" y="32.565"/><use xlink:href="#31" y="34.736"/><use xlink:href="#32" y="36.907"/><use xlink:href="#33" y="39.078"/><use xlink:href="#34" y="41.249"/><use xlink:href="#35" y="43.42"/></svg><svg x="5670"><use xlink:href="#a"/><use xlink:href="#b" x="-.004" y="45.566"/><use xlink:href="#17"/><use xlink:href="#18" y="2.171"/><use xlink:href="#19" y="4.342"/><use xlink:href="#20" y="6.513"/><use xlink:href="#20" y="8.684"/><use xlink:href="#21" y="10.855"/><use xlink:href="#22" y="13.026"/><use xlink:href="#23" y="15.197"/><use xlink:href="#24" y="17.368"/><use xlink:href="#25" y="19.539"/><use xlink:href="#26" y="21.71"/><use xlink:href="#27" y="23.881"/><use xlink:href="#28" y="26.052"/><use xlink:href="#29" y="28.223"/><use xlink:href="#30" y="30.394"/><use xlink:href="#31" y="32.565"/><use xlink:href="#32" y="34.736"/><use xlink:href="#33" y="36.907"/><use xlink:href="#34" y="39.078"/><use xlink:href="#35" y="41.249"/><use xlink:href="#36" y="43.42"/></svg><svg x="5796"><use xlink:href="#a"/><use xlink:href="#b" x="-.004" y="45.566"/><use xlink:href="#18"/><use xlink:href="#19" y="2.171"/><use xlink:href="#20" y="4.342"/><use xlink:href="#20" y="6.513"/><use xlink:href="#21" y="8.684"/><use xlink:href="#22" y="10.855"/><use xlink:href="#23" y="13.026"/><use xlink:href="#24" y="15.197"/><use xlink:href="#25" y="17.368"/><use xlink:href="#26" y="19.539"/><use xlink:href="#27" y="21.71"/><use xlink:href="#28" y="23.881"/><use xlink:href="#29" y="26.052"/><use xlink:href="#30" y="28.223"/><use xlink:href="#31" y="30.394"/><use xlink:href="#32" y="32.565"/><use xlink:href="#33" y="34.736"/><use xlink:href="#34" y="36.907"/><use xlink:href="#35" y="39.078"/><use xlink:href="#36" y="41.249"/><use xlink:href="#37" y="43.42"/></svg><svg x="5922"><use xlink:href="#a"/><use xlink:href="#b" x="-.004" y="45.566"/><use xlink:href="#19"/><use xlink:href="#20" y="2.171"/><use xlink:href="#20" y="4.342"/><use xlink:href="#21" y="6.513"/><use xlink:href="#22" y="8.684"/><use xlink:href="#23" y="10.855"/><use xlink:href="#24" y="13.026"/><use xlink:href="#25" y="15.197"/><use xlink:href="#26" y="17.368"/><use xlink:href="#27" y="19.539"/><use xlink:href="#28" y="21.71"/><use xlink:href="#29" y="23.881"/><use xlink:href="#30" y="26.052"/><use xlink:href="#31" y="28.223"/><use xlink:href="#32" y="30.394"/><use xlink:href="#33" y="32.565"/><use xlink:href="#34" y="34.736"/><use xlink:href="#35" y="36.907"/><use xlink:href="#36" y="39.078"/><use xlink:href="#37" y="41.249"/><use xlink:href="#38" y="43.42"/></svg><svg x="6048"><use xlink:href="#a"/><use xlink:href="#b" x="-.004" y="45.566"/><use xlink:href="#19"/><use xlink:href="#20" y="2.171"/><use xlink:href="#20" y="4.342"/><use xlink:href="#21" y="6.513"/><use xlink:href="#22" y="8.684"/><use xlink:href="#23" y="10.855"/><use xlink:href="#24" y="13.026"/><use xlink:href="#25" y="15.197"/><use xlink:href="#26" y="17.368"/><use xlink:href="#27" y="19.539"/><use xlink:href="#28" y="21.71"/><use xlink:href="#29" y="23.881"/><use xlink:href="#30" y="26.052"/><use xlink:href="#31" y="28.223"/><use xlink:href="#32" y="30.394"/><use xlink:href="#33" y="32.565"/><use xlink:href="#34" y="34.736"/><use xlink:href="#35" y="36.907"/><use xlink:href="#36" y="39.078"/><use xlink:href="#37" y="41.249"/><use xlink:href="#38" y="43.42"/></svg><svg x="6174"><use xlink:href="#a"/><use xlink:href="#b" x="-.004" y="45.566"/><use xlink:href="#19"/><use xlink:href="#20" y="2.171"/><use xlink:href="#20" y="4.342"/><use xlink:href="#21" y="6.513"/><use xlink:href="#22" y="8.684"/><use xlink:href="#23" y="10.855"/><use xlink:href="#24" y="13.026"/><use xlink:href="#25" y="15.197"/><use xlink:href="#26" y="17.368"/><use xlink:href="#27" y="19.539"/><use xlink:href="#28" y="21.71"/><use xlink:href="#29" y="23.881"/><use xlink:href="#30" y="26.052"/><use xlink:href="#31" y="28.223"/><use xlink:href="#32" y="30.394"/><use xlink:href="#33" y="32.565"/><use xlink:href="#34" y="34.736"/><use xlink:href="#35" y="36.907"/><use xlink:href="#36" y="39.078"/><use xlink:href="#37" y="41.249"/><use xlink:href="#38" y="43.42"/></svg><svg x="6300"><use xlink:href="#a"/><use xlink:href="#b" x="26.996" y="45.566"/><use xlink:href="#19"/><use xlink:href="#20" y="2.171"/><use xlink:href="#20" y="4.342"/><use xlink:href="#21" y="6.513"/><use xlink:href="#22" y="8.684"/><use xlink:href="#23" y="10.855"/><use xlink:href="#24" y="13.026"/><use xlink:href="#25" y="15.197"/><use xlink:href="#26" y="17.368"/><use xlink:href="#27" y="19.539"/><use xlink:href="#28" y="21.71"/><use xlink:href="#29" y="23.881"/><use xlink:href="#30" y="26.052"/><use xlink:href="#31" y="28.223"/><use xlink:href="#32" y="30.394"/><use xlink:href="#33" y="32.565"/><use xlink:href="#34" y="34.736"/><use xlink:href="#35" y="36.907"/><use xlink:href="#36" y="39.078"/><use xlink:href="#37" y="41.249"/><use xlink:href="#38" y="43.42"/><use xlink:href="#1" y="45.591"/></svg><svg x="6426"><use xlink:href="#a"/><use xlink:href="#b" x="-.004" y="45.566"/><use xlink:href="#20"/><use xlink:href="#21" y="2.171"/><use xlink:href="#22" y="4.342"/><use xlink:href="#23" y="6.513"/><use xlink:href="#24" y="8.684"/><use xlink:href="#25" y="10.855"/><use xlink:href="#26" y="13.026"/><use xlink:href="#27" y="15.197"/><use xlink:href="#28" y="17.368"/><use xlink:href="#29" y="19.539"/><use xlink:href="#30" y="21.71"/><use xlink:href="#31" y="23.881"/><use xlink:href="#32" y="26.052"/><use xlink:href="#33" y="28.223"/><use xlink:href="#34" y="30.394"/><use xlink:href="#35" y="32.565"/><use xlink:href="#36" y="34.736"/><use xlink:href="#37" y="36.907"/><use xlink:href="#38" y="39.078"/><use xlink:href="#1" y="41.249"/><text y="45.09" class="c">exit</text></svg></svg></g></g></svg></svg>